<svg id="Camada_1" data-name="Camada 1" xmlns="http://www.w3.org/2000/svg" viewBox="0 0 2417 1087.33"><defs><style>.cls-1{fill:#59a284;}.cls-2{fill:#fff;}.cls-3{fill:#305569;}</style></defs><rect class="cls-1" y="0.17" width="2417" height="1087"/><path class="cls-2" d="M1040.51,766.17c-19.09,0-29.3-10.21-29.3-29.32V538.45c0-6.37-3.49-9.86-9.63-9.86H986.92c-18.16-.24-27.9-10.21-27.9-28.37,0-19.13,8.5-29.1,28.47-30.54l13.85-.74c6.38-.6,9.87-4.1,9.87-10.24V423.41c0-55.65,25.43-92.16,97.84-92.16,15,0,42,1.08,66.35,2.89,19.1,1.44,28.23,13.59,25.71,33.87-2.52,19.14-12.36,28.63-31.36,28.63h-29c-30.07,0-40,10.42-40,38.39v23.43c0,6.38,3.49,9.87,9.86,9.87h43c17.25,0,29.3,10,29.3,29.94,0,21.07-11.31,30.3-29.3,30.3h-43c-6.37,0-9.86,3.49-9.86,9.87v198.4c0,19.1-10.21,29.31-29.31,29.31h-30.87Z"/><path class="cls-2" d="M1226.7,380c0-26.79,20.34-46.18,48.91-46.18,28.2,0,48.54,19.39,48.54,46.18,0,27.16-20.34,46.55-48.54,46.55C1247,426.54,1226.7,407.15,1226.7,380Zm4,357.45V498.23c0-19.09,10.21-29.3,29.3-29.3h30c19.1,0,29.3,10.21,29.3,29.3V737.44c0,19.11-10.2,29.32-29.3,29.32h-30C1241,766.76,1230.75,756.55,1230.75,737.44Z"/><path class="cls-2" d="M1531.34,773.4c-119.63,0-146.95-65.95-146.95-155.92,0-123.44,43.93-157.25,120.36-157.25,20,0,48.63,2,75.86,11.61,7.75,2.55,9.59,1.51,9.59-8,0-16.08-.74-28.35-.51-47.13l.24-43.86c.24-19.34,10.2-29.31,29.54-29.31h30.63c19.11,0,29.32,10.22,29.32,29.31V727.34c0,15.35-6.11,25.76-21.83,30.46-29.75,9.16-91,15.6-126.25,15.6Zm46.41-69.91c8-1.58,12.41-5.81,12.41-13.65l.37-141.55c0-8-2.52-13.18-8.9-14.16a250.29,250.29,0,0,0-51.35-5c-39.65,0-54.12,12.58-54.12,87.13,0,70.78,14.71,89.34,53.54,90.79C1544.81,707.64,1567.12,705.57,1577.75,703.49Z"/><path class="cls-2" d="M1735.1,617.66c0-111.11,40.49-157.42,151.75-157.42,109.92,0,151.15,46.31,151.15,157.42,0,110.4-41.23,156.1-151.15,156.1C1775.59,773.76,1735.1,728.06,1735.1,617.66Zm209.82,0c0-68.81-13.26-90.82-58.07-90.82-46.14,0-58.3,22-58.3,90.82,0,67.73,12.16,89.51,58.3,89.51C1931.66,707.17,1944.92,685.39,1944.92,617.66Z"/><path class="cls-3" d="M582.61,676.35c-10-10-8.47-22.89-8.59-36.51.06-1.27.07-2.53,0-3.8.07-12.78-.71-24.79,8.83-34.33,19-19,47.73,2.88,72.94-22.34A50.08,50.08,0,1,0,585,508.55c-25.21,25.21-3.35,54-22.33,72.94-7.33,7.32-16.11,8.56-25.58,8.78-9.7,0-40.31.24-50.33-9.78-9.81-9.81-8.54-22.35-8.59-35.65.48-14.49-1.76-28.26,8.91-38.93,8.28-8.28,17.29-8.83,29.31-8.83,9.63,0,19.67.44,28.79-3.57A43.47,43.47,0,0,0,560,483.57l.27-.31.31-.28a43.38,43.38,0,0,0,9.94-14.85c4-9.12,4.19-19.08,3.58-28.79-.55-8.75.54-21,8.82-29.3,19-19,47.73,2.87,72.94-22.34a50.08,50.08,0,1,0-70.82-70.83c-25.22,25.22-3.36,54-22.34,72.94-8.28,8.28-15.1,10.09-29.3,8.83-10.64-.95-19.68-.44-28.8,3.57a43.47,43.47,0,0,0-14.85,9.94c-.1.1-.18.21-.27.31l-.31.28a43.38,43.38,0,0,0-9.94,14.85c-4,9.12-3.7,15.78-3.58,28.79.08,8.15-.54,21-8.82,29.3-7.4,7.4-18.08,8.66-25.88,8.78-17.34.27-34.3.69-47.12,13.51a50.27,50.27,0,0,0-.26,71.08l0,0,0,0a.6.6,0,0,1,.08.08c1,1,2.1,2,3.16,2.84.36.31.73.61,1.1.91.59.46,1.2.89,1.8,1.32,12,8.66,25.54,9.3,40.87,8,10.39-.87,18.39,1.27,25.72,8.59,10,10,8.16,22.68,8.28,36.3.11,15.67,4.27,27.23,14.15,37.11,10.62,10.62,21.65,13.16,44.48,13,5.17,0,21.56,2.09,29,9.47,18.84,18.85-2,49,23,74a50.27,50.27,0,0,0,71.09-.26c19.7-19.7,18.6-52.74-1-72.3C631.57,674.34,602.67,696.41,582.61,676.35Z"/><circle class="cls-2" cx="715.01" cy="446.82" r="50.45"/><circle class="cls-2" cx="811.82" cy="543.64" r="50.45"/><circle class="cls-2" cx="716.5" cy="639.47" r="50.45"/></svg>